<?xml version="1.0"?>
<svg xmlns="http://www.w3.org/2000/svg" xmlns:xlink="http://www.w3.org/1999/xlink" xmlns:svgjs="http://svgjs.com/svgjs" version="1.1" width="512" height="512" x="0" y="0" viewBox="0 0 512 512" style="enable-background:new 0 0 512 512" xml:space="preserve" class=""><g transform="matrix(1,0,0,1,0,0)"><g xmlns="http://www.w3.org/2000/svg"><g><path d="m9.457 502.203-6.467-6.467c-3.986-3.986-3.986-10.45 0-14.436l137.704-137.704 20.904 20.904-137.705 137.703c-3.986 3.987-10.449 3.987-14.436 0z" fill="#8dc637" data-original="#8dc637" style=""/><path d="m118.004 352.994h38.828v29.562h-38.828z" fill="#79a72d" transform="matrix(.707 -.707 .707 .707 -219.807 204.888)" data-original="#79a72d" style=""/><g><path d="m143.317 371.538-20.92-20.92c-4.435-4.435-4.435-11.625 0-16.059l44.688-44.688 36.98 36.98-44.688 44.688c-4.435 4.433-11.625 4.433-16.06-.001z" fill="#7da2b0" data-original="#7da2b0" style="" class=""/><path d="m204.068 326.844-44.693 44.693c-4.432 4.432-11.627 4.432-16.059 0l-20.917-20.917c4.432 4.4 11.603 4.392 16.027-.032l44.693-44.693z" fill="#688d97" data-original="#688d97" style="" class=""/></g><g><g><g><path d="m175.359 467.704c-4.267 0-7.726-3.459-7.726-7.726 0-15.505-2.103-25.763-3.792-34.007-2.634-12.854-4.715-23.007 7.552-35.503 6.141-6.256 12.557-7.399 17.242-8.234 4.176-.745 6.082-1.085 8.356-4.115 1.943-2.589 1.772-4.431 1.161-8.715-.744-5.216-1.762-12.36 4.099-20.171 2.561-3.414 7.404-4.105 10.817-1.543 3.413 2.561 4.104 7.404 1.543 10.817-1.943 2.589-1.772 4.431-1.161 8.715.744 5.216 1.762 12.36-4.099 20.171-5.928 7.9-12.907 9.144-18.004 10.053-3.76.67-6.243 1.113-8.927 3.847-6.505 6.626-5.917 9.496-3.441 21.575 1.733 8.456 4.107 20.037 4.107 37.109-.001 4.268-3.46 7.727-7.727 7.727z" fill="#7da2b0" data-original="#7da2b0" style="" class=""/></g><g><g><g><path d="m175.523 509.913c-4.267 0-7.727-3.459-7.727-7.726l-.001-11.857c0-4.267 3.459-7.727 7.726-7.727s7.727 3.459 7.727 7.726l.001 11.857c-.001 4.267-3.459 7.727-7.726 7.727z" fill="#9ce6fb" data-original="#9ce6fb" style="" class=""/></g></g><g><g><path d="m151.02 455.63c-1.311 0-2.639-.334-3.856-1.037l-10.269-5.929c-3.696-2.133-4.962-6.859-2.828-10.554s6.858-4.962 10.554-2.828l10.269 5.929c3.696 2.133 4.962 6.859 2.828 10.554-1.431 2.478-4.028 3.865-6.698 3.865z" fill="#9ce6fb" data-original="#9ce6fb" style="" class=""/></g><g><path d="m210.279 489.843c-1.311 0-2.639-.334-3.856-1.037l-10.269-5.928c-3.696-2.133-4.962-6.859-2.828-10.554 2.133-3.696 6.857-4.963 10.554-2.828l10.269 5.928c3.696 2.133 4.962 6.859 2.828 10.554-1.431 2.479-4.028 3.865-6.698 3.865z" fill="#9ce6fb" data-original="#9ce6fb" style="" class=""/></g><g><path d="m151.02 455.63c-1.311 0-2.639-.334-3.856-1.037l-10.269-5.929c-3.696-2.133-4.962-6.859-2.828-10.554s6.858-4.962 10.554-2.828l10.269 5.929c3.696 2.133 4.962 6.859 2.828 10.554-1.431 2.478-4.028 3.865-6.698 3.865z" fill="#9ce6fb" data-original="#9ce6fb" style="" class=""/></g></g><g><g><path d="m140.765 489.843c-2.67 0-5.267-1.386-6.698-3.864-2.134-3.696-.868-8.421 2.827-10.555l10.268-5.929c3.696-2.133 8.421-.868 10.555 2.827s.868 8.421-2.827 10.555l-10.268 5.929c-1.217.703-2.546 1.037-3.857 1.037z" fill="#9ce6fb" data-original="#9ce6fb" style="" class=""/></g><g><path d="m200.025 455.63c-2.67 0-5.267-1.386-6.698-3.865-2.134-3.695-.868-8.421 2.828-10.554l10.268-5.929c3.694-2.132 8.421-.868 10.554 2.828 2.134 3.695.868 8.421-2.828 10.554l-10.268 5.929c-1.217.702-2.545 1.037-3.856 1.037z" fill="#9ce6fb" data-original="#9ce6fb" style="" class=""/></g><g><path d="m140.765 489.843c-2.67 0-5.267-1.386-6.698-3.864-2.134-3.696-.868-8.421 2.827-10.555l10.268-5.929c3.696-2.133 8.421-.868 10.555 2.827s.868 8.421-2.827 10.555l-10.268 5.929c-1.217.703-2.546 1.037-3.857 1.037z" fill="#9ce6fb" data-original="#9ce6fb" style="" class=""/></g></g></g><g id="XMLID_730_"><path d="m196.714 426.601c-4.267 0-7.726-3.459-7.726-7.726v-.106c0-4.267 3.459-7.726 7.726-7.726s7.726 3.459 7.726 7.726v.106c.001 4.267-3.459 7.726-7.726 7.726z" fill="#9ce6fb" data-original="#9ce6fb" style="" class=""/></g><g id="XMLID_733_"><path d="m118.361 474.779c-4.267 0-7.726-3.459-7.726-7.726v-.106c0-4.267 3.459-7.726 7.726-7.726s7.726 3.459 7.726 7.726v.106c.001 4.267-3.459 7.726-7.726 7.726z" fill="#9ce6fb" data-original="#9ce6fb" style="" class=""/></g><g id="XMLID_737_"><path d="m234.963 463.306c-4.267 0-7.726-3.459-7.726-7.726v-.106c0-4.267 3.459-7.726 7.726-7.726s7.726 3.459 7.726 7.726v.106c.001 4.266-3.459 7.726-7.726 7.726z" fill="#9ce6fb" data-original="#9ce6fb" style="" class=""/></g><path d="m217.543 212.258 43.515 123.436-24.24 24.086c-6.871 6.84-17.987 6.799-24.817-.072l-58.597-58.957c-6.84-6.871-6.799-17.977.072-24.817z" fill="#fb3a82" data-original="#fb3a82" style="" class=""/><path d="m363.056 234.335-65.859 65.448-43.515-123.437 65.86-65.447z" fill="#fb3a82" data-original="#fb3a82" style="" class=""/><path d="m468.083 129.957-68.899 68.466-43.514-123.426 29.072-28.886c6.871-6.84 17.987-6.799 24.817.072l58.607 58.947c6.83 6.881 6.799 17.987-.083 24.827z" fill="#fb3a82" data-original="#fb3a82" style="" class=""/><g fill="#fb1466"><path d="m447.295 150.622 20.793-20.668c6.874-6.834 6.908-17.946.074-24.82l-58.601-58.952c-6.833-6.874-17.946-6.908-24.82-.074l-21.043 20.918z" fill="#fb1466" data-original="#fb1466" style="" class=""/><path d="m248.16 299.103 12.898 36.602-24.23 24.086c-6.871 6.83-17.997 6.789-24.827-.082l-24.714-24.858c6.83 6.871 17.956 6.902 24.827.072z" fill="#fb1466" data-original="#fb1466" style="" class=""/><path d="m363.056 234.345-65.859 65.448-12.898-36.602 65.86-65.448z" fill="#fb1466" data-original="#fb1466" style="" class=""/><path d="m468.094 129.957-68.899 68.476-12.908-36.602 57.093-56.732c6.871-6.83 6.902-17.956.072-24.827l24.714 24.869c6.83 6.86 6.799 17.986-.072 24.816z" fill="#fb1466" data-original="#fb1466" style="" class=""/></g><g><path d="m305.289 291.752-52.312 52-43.515-123.44 52.312-52z" fill="#9ce6fb" data-original="#9ce6fb" style="" class=""/><path d="m292.39 255.153 12.905 36.6-52.312 51.999-12.904-36.599z" fill="#68dbf9" data-original="#68dbf9" style="" class=""/><path d="m407.283 190.395-52.312 52-43.515-123.44 52.311-52z" fill="#9ce6fb" data-original="#9ce6fb" style="" class=""/><g><path d="m394.378 153.803 12.905 36.599-52.312 51.999-12.905-36.599z" fill="#68dbf9" data-original="#68dbf9" style="" class=""/></g></g></g><path d="m499.324 2.166-127.056 14.847c-9.408 1.099-13.414 12.555-6.742 19.278l111.45 112.301c6.679 6.73 18.176 2.795 19.331-6.616l15.607-127.147c.896-7.303-5.282-13.517-12.59-12.663z" fill="#fc5a95" data-original="#fc5a95" style="" class=""/><path d="m476.977 148.59-28.136-28.345c6.769 4.858 16.758.827 17.834-7.909l13.249-107.903 19.4-2.264c7.307-.851 13.482 5.356 12.591 12.655l-15.602 127.151c-1.157 9.41-12.656 13.344-19.336 6.615z" fill="#fb3a82" data-original="#fb3a82" style="" class=""/></g></g></g></g></svg>
